HIERARCHY
ROOT Hips
{
	OFFSET 0.000000 89.005402 0.000000
	CHANNELS 6 Xposition Yposition Zposition Xrotation Yrotation Zrotation
	JOINT Spine
	{
		OFFSET 0.116900 10.681000 0.373400
		CHANNELS 3 Xrotation Yrotation Zrotation
		JOINT Spine1
		{
			OFFSET 0.000000 13.840401 0.053500
			CHANNELS 3 Xrotation Yrotation Zrotation
			JOINT Spine2
			{
				OFFSET 0.000000 14.712700 -0.366200
				CHANNELS 3 Xrotation Yrotation Zrotation
				JOINT Neck
				{
					OFFSET 0.000000 35.415497 -3.314200
					CHANNELS 3 Xrotation Yrotation Zrotation
					JOINT Head
					{
						OFFSET 0.000000 16.899200 1.218300
						CHANNELS 3 Xrotation Yrotation Zrotation
						JOINT HeadTop_End
						{
							OFFSET 0.000000 22.206207 2.192500
							CHANNELS 3 Xrotation Yrotation Zrotation
							End Site
							{
								OFFSET 0.000000 22.314178 0.000000
							}
						}
					}
				}
				JOINT LeftShoulder
				{
					OFFSET 12.896400 26.716293 -4.548400
					CHANNELS 3 Xrotation Yrotation Zrotation
					JOINT LeftArm
					{
						OFFSET 19.027000 -4.857010 -1.718400
						CHANNELS 3 Xrotation Yrotation Zrotation
						JOINT LeftForeArm
						{
							OFFSET 24.179897 0.000000 0.000000
							CHANNELS 3 Xrotation Yrotation Zrotation
							JOINT LeftHand
							{
								OFFSET 27.156403 0.000000 0.000000
								CHANNELS 3 Xrotation Yrotation Zrotation
								JOINT LeftHandIndex1
								{
									OFFSET 16.441200 0.000000 0.000000
									CHANNELS 3 Xrotation Yrotation Zrotation
									JOINT LeftHandIndex2
									{
										OFFSET 4.821899 0.000000 0.000000
										CHANNELS 3 Xrotation Yrotation Zrotation
										JOINT LeftHandIndex3
										{
											OFFSET 6.386497 0.000000 0.000000
											CHANNELS 3 Xrotation Yrotation Zrotation
											JOINT LeftHandIndex4
											{
												OFFSET 5.188988 0.000000 0.000000
												CHANNELS 3 Xrotation Yrotation Zrotation
												End Site
												{
													OFFSET -0.178703 5.185913 0.000177
												}
											}
										}
									}
								}
								JOINT LeftHandThumb1
								{
									OFFSET 6.534897 -5.032593 5.900300
									CHANNELS 3 Xrotation Yrotation Zrotation
									JOINT LeftHandThumb2
									{
										OFFSET 3.818176 -2.204422 2.204423
										CHANNELS 3 Xrotation Yrotation Zrotation
										JOINT LeftHandThumb3
										{
											OFFSET 3.252098 -1.877594 1.877601
											CHANNELS 3 Xrotation Yrotation Zrotation
											JOINT LeftHandThumb4
											{
												OFFSET 5.251778 -3.032120 3.032117
												CHANNELS 3 Xrotation Yrotation Zrotation
												End Site
												{
													OFFSET 0.000023 6.780014 0.000000
												}
											}
										}
									}
								}
							}
						}
					}
				}
				JOINT RightShoulder
				{
					OFFSET -12.896300 26.716293 -4.548400
					CHANNELS 3 Xrotation Yrotation Zrotation
					JOINT RightArm
					{
						OFFSET -19.027000 -4.857010 -1.718400
						CHANNELS 3 Xrotation Yrotation Zrotation
						JOINT RightForeArm
						{
							OFFSET -24.179897 0.000000 0.000000
							CHANNELS 3 Xrotation Yrotation Zrotation
							JOINT RightHand
							{
								OFFSET -27.156403 0.000000 0.000000
								CHANNELS 3 Xrotation Yrotation Zrotation
								JOINT RightHandThumb1
								{
									OFFSET -6.591202 -4.852203 5.988100
									CHANNELS 3 Xrotation Yrotation Zrotation
									JOINT RightHandThumb2
									{
										OFFSET -3.818176 -2.204422 2.204423
										CHANNELS 3 Xrotation Yrotation Zrotation
										JOINT RightHandThumb3
										{
											OFFSET -3.252098 -1.877594 1.877601
											CHANNELS 3 Xrotation Yrotation Zrotation
											JOINT RightHandThumb4
											{
												OFFSET -5.251778 -3.032120 3.032117
												CHANNELS 3 Xrotation Yrotation Zrotation
												End Site
												{
													OFFSET -0.000023 6.780014 0.000000
												}
											}
										}
									}
								}
								JOINT RightHandIndex1
								{
									OFFSET -16.029404 0.000000 0.000000
									CHANNELS 3 Xrotation Yrotation Zrotation
									JOINT RightHandIndex2
									{
										OFFSET -5.213303 0.000000 0.000000
										CHANNELS 3 Xrotation Yrotation Zrotation
										JOINT RightHandIndex3
										{
											OFFSET -6.386528 0.000000 0.000000
											CHANNELS 3 Xrotation Yrotation Zrotation
											JOINT RightHandIndex4
											{
												OFFSET -5.189026 0.000000 0.000000
												CHANNELS 3 Xrotation Yrotation Zrotation
												End Site
												{
													OFFSET 0.236702 5.183624 0.001972
												}
											}
										}
									}
								}
							}
						}
					}
				}
			}
		}
	}
	JOINT LeftUpLeg
	{
		OFFSET 14.073000 -7.904099 -1.463000
		CHANNELS 3 Xrotation Yrotation Zrotation
		JOINT LeftLeg
		{
			OFFSET -0.109806 -34.073280 4.093200
			CHANNELS 3 Xrotation Yrotation Zrotation
			JOINT LeftFoot
			{
				OFFSET 0.109806 -29.899420 -6.319000
				CHANNELS 3 Xrotation Yrotation Zrotation
				JOINT LeftToeBase
				{
					OFFSET 1.551100 -14.988700 20.535801
					CHANNELS 3 Xrotation Yrotation Zrotation
					JOINT LeftToe_End
					{
						OFFSET 0.221200 0.570800 13.248301
						CHANNELS 3 Xrotation Yrotation Zrotation
						End Site
						{
							OFFSET 0.000000 13.262435 0.000000
						}
					}
				}
			}
		}
	}
	JOINT RightUpLeg
	{
		OFFSET -13.839300 -7.904099 -1.463000
		CHANNELS 3 Xrotation Yrotation Zrotation
		JOINT RightLeg
		{
			OFFSET 0.109694 -34.073219 4.093300
			CHANNELS 3 Xrotation Yrotation Zrotation
			JOINT RightFoot
			{
				OFFSET -0.109694 -29.899384 -6.319200
				CHANNELS 3 Xrotation Yrotation Zrotation
				JOINT RightToeBase
				{
					OFFSET -1.551100 -14.988700 20.535801
					CHANNELS 3 Xrotation Yrotation Zrotation
					JOINT RightToe_End
					{
						OFFSET -0.221200 0.570900 13.248299
						CHANNELS 3 Xrotation Yrotation Zrotation
						End Site
						{
							OFFSET 0.000000 13.262440 0.000000
						}
					}
				}
			}
		}
	}
}
MOTION
Frames: 4
Frame Time: 0.033333
-1.001261 77.983620 -3.714738 -6.713557 -41.455451 -1.137487 7.444596 13.581705 -1.332094 3.363132 2.849230 -0.796424 3.377241 2.847993 -0.744368 10.441821 2.053922 -2.267965 15.494390 8.988654 -4.073417 -0.000002 0.000001 -0.000001 -0.712330 6.547841 5.180482 -33.041392 -20.613584 -62.045261 -0.000006 -128.535213 -0.000001 12.618009 -18.732620 20.711869 7.775676 6.956320 -86.152721 10.250114 6.003570 -119.372063 9.029917 6.538652 -108.236444 0.000001 -0.000001 0.000002 4.891678 7.994783 1.883988 10.475091 36.544350 -16.206442 18.107130 67.043204 3.186328 0.000003 0.000001 0.000001 0.319945 0.336496 -0.527400 -63.297207 29.555403 76.928100 0.000060 106.221702 -0.000069 -19.284081 28.724367 -18.276746 2.101973 -10.083010 3.633760 25.660749 -30.716737 6.844841 36.126329 -53.497826 18.680875 -0.000003 -0.000000 0.000001 9.556171 -7.137706 86.157912 10.350209 -6.061994 119.375519 9.118076 -6.602327 108.238841 0.000000 -0.000000 -0.000001 -24.540364 -7.405130 13.436566 23.666865 -6.520924 4.099732 5.039030 0.670457 -23.351199 -0.000026 0.000020 -0.000006 -0.000000 -0.000000 -0.000000 8.146086 -21.264131 -14.369825 32.398442 -6.366305 -8.264111 -33.432256 -8.434950 22.511738 -2.770810 -0.000008 -0.000003 0.000000 -0.000000 -0.000000 
-0.976922 77.899483 -3.670517 -6.707797 -41.564379 -1.213252 7.415944 13.537578 -1.350348 3.340563 2.839666 -0.802212 3.354688 2.838442 -0.750825 10.393127 2.061765 -2.359248 15.515593 8.946430 -4.204570 0.000001 0.000001 0.000000 -0.723452 6.604378 5.227468 -33.011954 -20.823980 -62.143260 -0.000006 -128.468591 -0.000003 12.796642 -18.644256 20.282300 7.766644 6.957464 -86.078183 10.258385 5.998936 -119.451198 9.033275 6.537557 -108.265930 -0.000000 -0.000000 0.000002 4.766715 8.191442 2.066766 10.470613 36.547325 -16.203965 18.022267 67.060580 3.271429 0.000002 0.000000 -0.000000 0.304814 0.213801 -0.672337 -63.522364 29.641614 77.151180 0.000265 106.213731 -0.000283 -19.312256 28.738892 -18.281507 2.124557 -10.027159 3.675776 25.662696 -30.714230 6.845620 36.108389 -53.503867 18.673978 -0.000000 0.000002 0.000002 9.567651 -7.136562 86.193524 10.363198 -6.054703 119.498599 9.092396 -6.610676 108.015658 -0.000000 0.000001 -0.000007 -24.842474 -7.115050 13.499948 24.220336 -6.961078 4.200777 4.707005 0.745609 -23.301493 -0.000003 0.000000 0.000003 0.000000 0.000000 -0.000000 8.035061 -21.156014 -14.480093 32.656395 -6.184169 -8.120181 -33.585840 -8.446698 22.458511 -2.808370 -0.000022 0.000005 -0.000000 0.000000 -0.000000 
-0.952754 77.835358 -3.628264 -6.713824 -42.000602 -1.285445 7.395279 13.682771 -1.362679 3.325539 2.870811 -0.803693 3.339796 2.869693 -0.752027 10.303778 2.095973 -2.482098 15.541061 9.024492 -4.454793 -0.000001 0.000001 0.000000 -0.745015 6.728833 5.291499 -32.716295 -20.905954 -62.165254 0.000015 -128.434631 0.000022 12.878076 -18.479792 19.785284 7.769051 6.957157 -86.098038 10.264363 5.995573 -119.508421 9.032917 6.537670 -108.262801 0.000001 0.000000 -0.000001 4.626744 8.402317 2.265077 10.451189 36.564246 -16.191807 17.880774 67.089274 3.413294 -0.000002 -0.000000 0.000000 0.300545 0.202619 -0.825284 -63.872903 29.704414 77.468593 0.000101 106.141153 -0.000121 -19.380629 28.768245 -18.210244 2.179734 -9.959330 3.724836 25.686379 -30.685185 6.854914 36.098322 -53.507296 18.670112 -0.000003 0.000002 0.000002 9.576062 -7.134647 86.239519 10.373036 -6.049159 119.591900 9.093808 -6.610225 108.027877 -0.000000 -0.000000 -0.000002 -24.945038 -6.904803 13.708079 24.741582 -7.023564 4.171074 4.304889 0.832565 -23.272768 -0.000023 -0.000017 -0.000008 0.000000 0.000000 -0.000000 7.722968 -20.908980 -14.693723 33.001213 -5.875324 -8.060017 -33.707424 -8.447751 22.394140 -2.827950 -0.000014 -0.000008 0.000000 -0.000001 0.000000 
-0.932973 77.810661 -3.584638 -6.752284 -42.656755 -1.385559 7.390729 13.884877 -1.361852 3.314866 2.914784 -0.811343 3.329612 2.913589 -0.759136 10.215134 2.149734 -2.572881 15.537866 9.246819 -4.725087 0.000001 0.000001 -0.000000 -0.782935 6.918131 5.447610 -32.243981 -20.848321 -62.117203 0.000013 -128.345771 0.000020 12.805724 -18.297575 19.353092 7.774177 6.956504 -86.140399 10.272470 5.991002 -119.586039 9.038084 6.535970 -108.308154 -0.000000 0.000000 -0.000002 4.460254 8.636373 2.490578 10.389505 36.621265 -16.151610 17.711533 67.122694 3.582825 -0.000000 0.000000 -0.000001 0.305320 0.267837 -0.911467 -64.262525 29.780888 77.902351 0.000278 105.986566 -0.000287 -19.557412 28.806787 -18.154747 2.270378 -9.846237 3.806270 25.732758 -30.628508 6.873082 36.100169 -53.506589 18.670807 -0.000001 0.000001 -0.000001 9.579275 -7.133749 86.260167 10.395902 -6.036186 119.809168 9.080355 -6.614559 107.911060 0.000000 -0.000000 0.000002 -24.810787 -6.846220 14.047179 25.139005 -6.739369 3.985506 3.892232 0.924049 -23.258022 -0.000033 0.000017 0.000003 0.000000 -0.000000 0.000000 7.363764 -20.558758 -14.904714 33.268315 -5.536467 -8.099371 -33.723485 -8.436925 22.364193 -2.848204 -0.000011 -0.000000 0.000000 0.000002 0.000000 
